PathFileType	4	(X/Y/Z)	Run_400 02
DataRate	CameraRate	NumFrames	NumMarkers	Units	OrigDataRate	OrigDataStartFrame	OrigNumFrames
100	100	4	42	mm	100	48	128
Frame#	Time	LPSI			RPSI			RTH2			RTH3			LTH1			LTH2			LTH3			RTB1			RTB2			LTB1			LTB2			RCAL			RTOE			RMT5			LCAL			LTOE			LMT5			LACR			RACR			CLAV			C7			RUA1			RUA2			RUA3			RLEL			LUA1			LUA2			LUA3			LLEL			LMEL			RFAsuperior			RFAulna			LFAsuperior			LFAradius			LFAulna			RASI			RTB3			LTB3			RMEL			RFAradius			RTH1			LASI			
		X1	Y1	Z1	X2	Y2	Z2	X3	Y3	Z3	X4	Y4	Z4	X5	Y5	Z5	X6	Y6	Z6	X7	Y7	Z7	X8	Y8	Z8	X9	Y9	Z9	X10	Y10	Z10	X11	Y11	Z11	X12	Y12	Z12	X13	Y13	Z13	X14	Y14	Z14	X15	Y15	Z15	X16	Y16	Z16	X17	Y17	Z17	X18	Y18	Z18	X19	Y19	Z19	X20	Y20	Z20	X21	Y21	Z21	X22	Y22	Z22	X23	Y23	Z23	X24	Y24	Z24	X25	Y25	Z25	X26	Y26	Z26	X27	Y27	Z27	X28	Y28	Z28	X29	Y29	Z29	X30	Y30	Z30	X31	Y31	Z31	X32	Y32	Z32	X33	Y33	Z33	X34	Y34	Z34	X35	Y35	Z35	X36	Y36	Z36	X37	Y37	Z37	X38	Y38	Z38	X39	Y39	Z39	X40	Y40	Z40	X41	Y41	Z41	X42	Y42	Z42	

26	1.12	861.109162	1154.166166	-396.828465	871.203619	1147.244701	-285.188188	810.2653350000001	858.952955	-199.621895	778.8580439999999	708.056961	-216.628356	983.712412	979.016646	-533.129182	995.2976	817.937057	-479.718857	1116.842368	738.890219	-477.520325	688.504817	460.326866	-289.336887	593.80769	470.244041	-226.322372	1229.722854	540.3646680000001	-423.943734	1131.395667	438.381467	-467.253564	401.069081	325.828053	-303.581397	498.309581	110.704145	-362.363363	448.093049	120.679972	-268.929587	1050.16783	198.236794	-371.552322	1286.230386	180.012111	-377.641864	1233.067779	125.402688	-458.320732	967.538414	1591.099767	-482.625709	1048.089698	1553.039224	-180.638524	1073.272426	1522.315566	-318.946994	951.005537	1590.778692	-319.345155	973.181097	1449.07104	-92.340277	1027.721841	1391.572286	-85.386717	984.050262	1312.687448	-25.171623	970.7185500000001	1246.134739	2.424205	838.661594	1544.140438	-503.602537	827.64159	1474.406831	-552.4263549999999	731.802894	1450.521848	-554.280926	685.800515	1396.679925	-571.62193	685.606719	1368.516199	-485.714366	1064.345828	1244.93388	-51.554755	1182.021454	1244.458032	-162.296268	731.141219	1327.486741	-585.997225	905.158578	1265.696645	-540.262884	870.652331	1212.176709	-574.683893	1027.603834	1088.106681	-214.629724	553.683126	325.630622	-307.614264	1182.681743	327.355613	-409.39381	941.7007620000001	1222.246233	-81.538133	1150.803853	1294.205944	-200.244267	922.393588	968.999039	-172.300366	1015.539795	1092.273014	-475.526924	
27	1.13	861.586821	1155.053692	-397.337056	871.629477	1149.691341	-285.425037	812.148181	860.944108	-199.287502	780.985628	709.9125309999999	-216.301053	981.584078	977.0799029999999	-533.627062	991.700234	817.08278	-477.645944	1110.972377	735.201244	-476.595401	680.791388	465.569392	-290.185175	588.539593	480.523429	-224.844054	1229.388894	538.373283	-422.009045	1139.983186	428.582127	-464.568517	384.164009	350.632015	-299.673568	466.954853	130.940357	-363.986787	419.269379	142.154509	-269.941094	1078.542569	183.094044	-367.811669	1314.938561	185.368901	-369.144925	1267.463878	123.784747	-447.909679	965.915587	1593.487274	-482.965717	1049.250099	1555.619412	-181.471811	1073.572115	1524.554628	-320.786968	951.266441	1592.844822	-319.806532	974.992032	1450.945792	-92.994078	1029.509667	1393.988089	-85.81550300000001	986.1041279999999	1315.876329	-24.419175	973.06246	1249.676043	3.706486	836.6331740000001	1547.498307	-502.425357	824.734401	1477.615968	-550.731422	728.51334	1453.962558	-550.837391	682.318639	1399.756937	-567.288411	684.06038	1371.084186	-481.389239	1065.812011	1247.926607	-51.853844	1181.378507	1246.81413	-164.776203	727.916638	1331.04048	-582.773826	903.475025	1271.142152	-540.747469	869.087985	1217.163749	-574.687778	1028.600817	1090.333349	-216.344996	536.742378	340.590162	-307.372826	1199.723835	322.503612	-405.445629	942.756873	1225.173285	-79.64679599999999	1149.090135	1296.338654	-202.204918	923.655481	972.234389	-172.039977	1014.416697	1093.221636	-475.557229	
28	1.14	861.866868	1155.063417	-397.741557	871.57057	1151.00535	-285.577004	815.822279	859.885968	-197.911287	786.5328929999999	708.225631	-215.898172	980.084728	975.254759	-533.6057520000001	988.024125	815.9030320000001	-476.0426	1103.942849	729.952821	-475.477646	674.780365	469.469844	-290.905122	585.477136	490.254168	-223.287354	1227.115785	535.073223	-419.468735	1146.160923	418.977104	-461.411689	367.62078	376.195199	-295.028476	438.548941	154.782789	-366.143095	393.283579	165.816285	-270.983113	1103.057944	169.922433	-363.712205	1338.17768	191.443297	-360.942929	1294.016334	126.000749	-438.380334	964.620314	1594.762842	-483.790489	1049.978982	1556.893927	-182.727005	1073.604965	1526.012512	-322.473922	951.410425	1594.316886	-320.770749	975.846274	1452.166912	-93.933437	1030.273554	1395.732572	-86.146918	987.180473	1318.246167	-24.010149	974.194213	1252.500899	4.6662	835.0722050000001	1549.570559	-501.958012	822.5990880000001	1479.200712	-549.349876	726.109221	1455.679245	-547.786015	679.704706	1401.081683	-563.405475	683.3663309999999	1372.116191	-477.437601	1066.54832	1248.568447	-51.866577	1180.301631	1244.900593	-166.254751	725.544392	1332.821959	-579.901882	902.440032	1274.542066	-541.41099	868.124995	1220.251239	-574.812761	1029.114441	1091.429983	-217.963634	521.11109	356.356828	-306.744668	1213.242404	317.922966	-401.14049	942.772665	1227.512376	-78.127304	1148.22071	1294.517558	-203.770608	925.7098099999999	973.72491	-171.998362	1013.508128	1093.622042	-475.079608	
29	1.15	861.663217	1154.371336	-397.752564	871.24451	1151.106769	-285.46838	820.859006	856.693048	-196.494732	794.448614	704.013075	-215.906416	979.371206	974.256531	-532.818893	983.998966	814.1971579999999	-474.99621	1095.78828	723.314439	-474.437225	670.764689	472.487628	-291.416083	584.595634	499.816548	-221.996646	1223.288279	530.764245	-416.374651	1149.6845	409.945014	-457.762749	354.053881	402.868877	-289.593246	413.486464	180.848178	-367.768518	370.079525	191.069046	-271.725484	1122.774363	158.549817	-359.456311	1355.513208	197.325203	-353.10303	1312.681848	130.185118	-429.927252	963.777289	1594.905151	-484.954068	1050.371968	1557.026484	-184.273124	1073.384236	1526.541318	-323.868928	951.431841	1594.995436	-322.101353	975.8363440000001	1453.143963	-95.055296	1030.061028	1396.79855	-86.62245	987.105173	1319.820339	-24.048786	973.81382	1254.550716	5.173006	834.072999	1550.290945	-502.130677	821.2531719999999	1479.189434	-548.288316	724.635463	1455.717658	-545.239129	678.031716	1400.664883	-560.077839	683.550359	1371.517148	-474.092907	1066.24131	1246.986782	-51.46039	1178.913806	1239.149899	-166.32987	724.081285	1332.864669	-577.563442	902.158808	1275.912556	-542.2019780000001	867.838973	1221.428155	-575.0445559999999	1029.37398	1091.302687	-219.323312	507.732661	372.775555	-305.279954	1222.957941	313.565327	-396.734583	941.665509	1229.34112	-77.20014500000001	1148.259513	1289.104863	-204.527177	928.674947	973.2489430000001	-172.246228	1012.924343	1093.748362	-474.255448	
